<?xml version="1.0" encoding="utf-8"?>
<!-- Generator: Adobe Illustrator 16.0.0, SVG Export Plug-In . SVG Version: 6.00 Build 0)  -->
<!DOCTYPE svg PUBLIC "-//W3C//DTD SVG 1.1//EN" "http://www.w3.org/Graphics/SVG/1.1/DTD/svg11.dtd">
<svg version="1.1" xmlns="http://www.w3.org/2000/svg" xmlns:xlink="http://www.w3.org/1999/xlink" x="0px" y="0px" width="122.5px"
	 height="387.5px" viewBox="0 0 122.5 387.5" enable-background="new 0 0 122.5 387.5" xml:space="preserve">
<g id="Layer_1">
	<path id="twitter-icon" fill="#FFFFFF" d="M92.75,14.635c-2.312,1.026-4.797,1.719-7.405,2.03c2.662-1.596,4.706-4.123,5.669-7.133
		c-2.492,1.478-5.251,2.55-8.188,3.128c-2.352-2.506-5.703-4.071-9.412-4.071c-8.322,0-14.441,7.767-12.56,15.832
		c-10.716-0.538-20.217-5.671-26.577-13.472c-3.377,5.794-1.752,13.376,3.99,17.214c-2.113-0.067-4.102-0.647-5.84-1.613
		c-0.14,5.974,4.141,11.56,10.341,12.806c-1.814,0.494-3.802,0.607-5.822,0.221c1.64,5.123,6.402,8.85,12.044,8.954
		c-5.421,4.248-12.248,6.146-19.089,5.339c5.706,3.658,12.484,5.793,19.765,5.793c23.939,0,37.464-20.22,36.648-38.354
		C88.835,19.491,91.021,17.221,92.75,14.635z"/>
</g>
<g id="Layer_2">
	<path id="github-2-icon_1_" fill="#FFFFFF" d="M92.542,117.664l0.056-0.583c-3.493-0.339-6.966-0.369-10.341-0.111
		c0.542-1.731,0.828-3.687,0.808-5.909c-0.045-4.724-1.62-8.402-4.095-11.455c0.475-2.877,0.117-5.752-0.78-8.629
		c-3.537,0.29-6.72,1.448-9.554,3.461c-5.297-1.074-10.594-1.143-15.891,0c-3.306-2.231-6.553-3.326-9.749-3.461
		c-0.947,3.168-1.093,6.29-0.292,9.359c-2.788,2.959-3.854,6.551-3.802,10.529c0.03,2.276,0.38,4.303,1.028,6.094
		c-3.325-0.244-6.743-0.211-10.18,0.122l0.056,0.583c3.5-0.34,6.98-0.368,10.36-0.104c0.124,0.301,0.249,0.601,0.392,0.887
		c-3.663-0.097-6.958,0.221-10.045,0.98l0.139,0.568c3.133-0.771,6.489-1.08,10.237-0.954c2.478,4.403,7.249,6.989,14.196,7.811
		c-1.614,1.312-2.481,2.857-2.705,4.606c0,0-0.73,0-3.68,0c-4.941,0-6.289-6.3-11.407-5.678c4.965,2.462,3.974,10.333,11.919,10.333
		c2.67,0,3.238,0,3.338,0v7.214c0.036,1.166-0.472,1.946-1.292,2.486c2.846,0.287,4.984-1.133,4.984-2.876s0-8.687,0-9.536
		s0.89-0.916,0.89-0.916v11.135c0.037,1.108-0.501,1.738-1.073,2.34c2.507,0.1,4.865-0.4,4.972-2.534c0,0,0-10.12,0-10.656
		s0.878-0.55,0.878,0c0,0.549,0,10.156,0,10.156c0.025,1.8,1.58,3.259,4.874,3.034c-0.881-0.709-1.152-1.426-1.152-2.463
		s0-11.012,0-11.012s0.908-0.046,0.908,0.916s0,7.678,0,9.287c0,2.066,2.481,2.92,5.313,2.84c-0.928-0.695-1.555-1.524-1.56-2.633
		v-11.169c-0.096-1.642-0.763-3.188-2.072-4.631c6.351-0.976,10.928-3.511,13.207-8.054c3.76-0.129,7.126,0.181,10.267,0.953
		l0.14-0.568c-3.111-0.765-6.435-1.082-10.131-0.979c0.128-0.288,0.254-0.578,0.364-0.882
		C85.483,117.292,89.002,117.319,92.542,117.664z M39.513,126.72c-0.156,0-0.283-0.09-0.283-0.199c0-0.111,0.126-0.201,0.283-0.201
		s0.283,0.09,0.283,0.201C39.795,126.63,39.669,126.72,39.513,126.72z M40.402,127.328c-0.173,0-0.314-0.1-0.314-0.223
		s0.141-0.223,0.314-0.223c0.174,0,0.314,0.1,0.314,0.223S40.576,127.328,40.402,127.328z M41.305,128.117
		c-0.204,0-0.369-0.117-0.369-0.262s0.165-0.262,0.369-0.262c0.203,0,0.369,0.117,0.369,0.262S41.508,128.117,41.305,128.117z
		 M42.182,129.063c-0.238,0-0.431-0.137-0.431-0.306c0-0.168,0.193-0.306,0.431-0.306c0.238,0,0.431,0.138,0.431,0.306
		C42.613,128.926,42.42,129.063,42.182,129.063z M43.148,130.133c-0.265,0-0.479-0.151-0.479-0.34c0-0.188,0.214-0.34,0.479-0.34
		c0.264,0,0.479,0.152,0.479,0.34C43.627,129.982,43.413,130.133,43.148,130.133z M44.267,131.22c-0.294,0-0.532-0.17-0.532-0.378
		s0.238-0.378,0.532-0.378c0.293,0,0.532,0.17,0.532,0.378S44.561,131.22,44.267,131.22z M45.78,132.253
		c-0.327,0-0.591-0.188-0.591-0.42c0-0.231,0.265-0.42,0.591-0.42c0.326,0,0.591,0.188,0.591,0.42
		C46.371,132.066,46.106,132.253,45.78,132.253z M47.655,132.806c-0.327,0-0.591-0.188-0.591-0.42c0-0.231,0.265-0.42,0.591-0.42
		c0.326,0,0.591,0.188,0.591,0.42C48.246,132.619,47.981,132.806,47.655,132.806z M49.631,132.87c-0.327,0-0.591-0.188-0.591-0.419
		c0-0.232,0.265-0.42,0.591-0.42s0.591,0.188,0.591,0.42C50.223,132.681,49.958,132.87,49.631,132.87z M51.583,132.908
		c-0.326,0-0.591-0.188-0.591-0.42c0-0.23,0.265-0.419,0.591-0.419c0.327,0,0.591,0.188,0.591,0.419
		C52.174,132.72,51.909,132.908,51.583,132.908z"/>
</g>
<g id="Layer_3">
	<path id="facebook-icon_1_" fill="#FFFFFF" d="M53.404,193.91h-6.582v10.742h6.582v31.559H66.06v-31.692h8.83l0.94-10.608h-9.77
		c0,0,0-3.962,0-6.043c0-2.502,0.503-3.492,2.92-3.492c1.948,0,6.849,0,6.849,0v-11.012c0,0-7.219,0-8.762,0
		c-9.417,0-13.663,4.146-13.663,12.086C53.404,192.365,53.404,193.91,53.404,193.91z"/>
</g>
</svg>
